
-: Cover :- 
 
http://desibbrg.net/imghost/show.php?img=430618_Ashiana.Nargis.Raj.Kapoor.1952.DvDrip.1CD.X264.AAC.RRG.DADA.jpg.html

-: Screens :-
 
http://desibbrg.net/imghost/show.php?img=430614_Ashiana.Nargis.Raj.Kapoor.1952.DvDrip.1CD.X264.AAC.RRG.DADA.DBBIANS.Com.mp4snapshot00.00.022013.03.3114.51.36.jpg.html 
http://desibbrg.net/imghost/show.php?img=430615_Ashiana.Nargis.Raj.Kapoor.1952.DvDrip.1CD.X264.AAC.RRG.DADA.DBBIANS.Com.mp4snapshot00.00.082013.03.3114.51.55.jpg.html 
http://desibbrg.net/imghost/show.php?img=430616_Ashiana.Nargis.Raj.Kapoor.1952.DvDrip.1CD.X264.AAC.RRG.DADA.DBBIANS.Com.mp4snapshot00.30.272013.03.3114.54.04.jpg.html 
http://desibbrg.net/imghost/show.php?img=430617_Ashiana.Nargis.Raj.Kapoor.1952.DvDrip.1CD.X264.AAC.RRG.DADA.DBBIANS.Com.mp4thumbs2013.03.3114.54.09.jpg.html

-: Info :-  


General

Format                           : Mp4 Video
File size                        : 412 MiB
Duration                         : 1h 44mn
Overall bit rate                 : 554 Kbps


Video
Format                           : AVC
Format/Info                      : Advanced Video Codec
Format profile                   : Main@L3.0
Format settings, CABAC           : Yes
Format settings, ReFrames        : 3 frames
Duration                         : 1h 44mn
Bit rate                         : 417 Kbps
Width                            : 656 pixels
Height                           : 480 pixels
Display aspect ratio             : 4:3
Frame rate mode                  : Constant
Frame rate                       : 25.000 fps
Color space                      : YUV
Chroma subsampling               : 4:2:0
Bit depth                        : 8 bits
Scan type                        : Progressive
Bits/(Pixel*Frame)               : 0.053
Stream size                      : 311 MiB (75%)

Audio
Format                           : AAC
Format/Info                      : Advanced Audio Codec
Format version                   : Version 4
Format profile                   : LC
Format settings, SBR             : No
Duration                         : 1h 44mn
Bit rate                         : 129 Kbps
Channel(s)                       : 2 channels
Channel positions                : Front: L R
Sampling rate                    : 44.1 KHz
Bit depth                        : 16 bits
Stream size                      : 95.8 MiB (23%)


 
http://www.imdb.com/title/tt0178205/


Cast & Crew
Cast

    Nargis
    Raj Kapoor
    Om Sharma
    Shivraj
    Mohana
    Kusum
    Randhu
    Baby Sadana
    Gaurang

Directors

    B.Trilochan

Producers

    B.Swinder Sabarwal

Writers

    Arjun Dev Rashik

